# xmcd
#
# Track frame offsets: 
#        150
#        3984
#        23505
#        52885
#        76115
#        102825
#        122700
#        127618
#        155233
#        177560
#        203774
#        229740
#        259141
#        287883
#        297330
#
# Disc length: 4436 seconds
#
# Revision: 32
# Processed by: cddbd v1.5.2PL0 Copyright (c) Steve Scherf et al.
# Submitted via: ExactAudioCopy v1.0b3
#
DISCID=c411520f
DTITLE=ケツメイシ - 2003 ケツノポリス 3
DYEAR=2003
DGENRE=J-Hip Hop
TTITLE0=(バテバテ)
TTITLE1=はじまりの合図
TTITLE2=夏の思い出
TTITLE3=1日
TTITLE4=家に帰ろう
TTITLE5=明日の少年
TTITLE6=(マブーハイ)
TTITLE7=夜の天使
TTITLE8=失恋
TTITLE9=門限やぶり
TTITLE10=痔持ち一代
TTITLE11=幸せをありがとう
TTITLE12=太陽
TTITLE13=(カントゥータンタンヨー)
TTITLE14=花鳥風月(Album Mix)
EXTD=YEAR: 2003
EXTT0=
EXTT1=
EXTT2=
EXTT3=
EXTT4=
EXTT5=
EXTT6=
EXTT7=
EXTT8=
EXTT9=
EXTT10=
EXTT11=
EXTT12=
EXTT13=
EXTT14=
PLAYORDER=
